<?xml version="1.0" encoding="utf-8"?>
<!-- Generator: Adobe Illustrator 16.0.0, SVG Export Plug-In . SVG Version: 6.00 Build 0)  -->
<!DOCTYPE svg PUBLIC "-//W3C//DTD SVG 1.1//EN" "http://www.w3.org/Graphics/SVG/1.1/DTD/svg11.dtd">
<svg version="1.1" id="Layer_1" xmlns="http://www.w3.org/2000/svg" xmlns:xlink="http://www.w3.org/1999/xlink" x="0px" y="0px"
	 width="177.375px" height="60px" viewBox="0 0 177.375 60" enable-background="new 0 0 177.375 60" xml:space="preserve">
<g>
	<path d="M166.25,35.15c0,1.988-1.609,3.602-3.602,3.602H3.6c-1.988,0-3.6-1.611-3.6-3.602V3.601C0,1.613,1.611,0,3.6,0h159.048
		c1.988,0,3.602,1.612,3.602,3.601V35.15L166.25,35.15z"/>
	<g>
		<path fill="#FFFFFF" d="M11.83,10.966h5.999c0.651,0,1.28,0.062,1.886,0.188c0.606,0.164,1.219,0.5,1.84,1.008
			c0.521,0.383,0.945,0.93,1.27,1.641c0.34,0.688,0.51,1.5,0.51,2.438c0,1.266-0.432,2.417-1.295,3.456
			c-0.887,1.094-2.182,1.656-3.887,1.688h-3.818v6.669h-2.506L11.83,10.966L11.83,10.966z M14.336,18.948h3.719
			c0.933-0.016,1.634-0.312,2.104-0.895c0.447-0.565,0.671-1.193,0.671-1.884c0-0.572-0.091-1.056-0.273-1.448
			c-0.189-0.353-0.455-0.632-0.796-0.836c-0.516-0.337-1.115-0.498-1.797-0.482h-3.628V18.948L14.336,18.948z"/>
		<path fill="#FFFFFF" d="M32.756,24.231H26.48l-1.271,3.821h-2.656l6.016-17.086h2.1l6.016,17.086H34.04L32.756,24.231z
			 M32.042,21.936l-2.395-7.475h-0.046l-2.395,7.475H32.042z"/>
		<path fill="#FFFFFF" d="M39.943,13.262h-4.536v-2.296h11.58v2.296h-4.539v14.79h-2.506L39.943,13.262L39.943,13.262z"/>
		<path fill="#FFFFFF" d="M49.131,10.966h2.506v17.086h-2.506V10.966z"/>
		<path fill="#FFFFFF" d="M55.318,10.966H65.89v2.437h-8.066v4.889h6.886v2.295h-6.886v5.029h8.066v2.437H55.318V10.966z"/>
		<path fill="#FFFFFF" d="M68.666,10.966h2.362l7.495,12.146h0.045V10.966h2.506v17.086h-2.373l-7.483-12.146h-0.045v12.146h-2.506
			L68.666,10.966L68.666,10.966z"/>
		<path fill="#FFFFFF" d="M87.897,13.262h-4.536v-2.296h11.581v2.296h-4.539v14.79h-2.505V13.262L87.897,13.262z"/>
		<path fill="#FFFFFF" d="M101.83,25.908l7.503-12.646h-7.44v-2.296H112.4v1.947l-7.771,12.702h7.771v2.437h-10.568L101.83,25.908
			L101.83,25.908z"/>
		<path fill="#FFFFFF" d="M115.295,10.966h10.572v2.437h-8.066v4.889h6.887v2.295h-6.887v5.029h8.066v2.437h-10.572V10.966
			L115.295,10.966z"/>
		<path fill="#FFFFFF" d="M128.645,10.966h6.465c1.379,0,2.506,0.375,3.377,1.125c1.048,0.852,1.595,2.066,1.642,3.645
			c-0.03,2.32-1.097,3.898-3.196,4.734l3.832,7.582h-2.979l-3.426-7.302h-3.209v7.302h-2.506V10.966L128.645,10.966z
			 M131.146,18.456h3.803c0.939-0.016,1.646-0.298,2.115-0.846c0.463-0.509,0.694-1.136,0.694-1.88
			c-0.016-0.893-0.293-1.539-0.832-1.939c-0.424-0.352-1.038-0.528-1.844-0.528h-3.937V18.456L131.146,18.456z"/>
		<path fill="#FFFFFF" d="M142.716,19.509c0-1.988,0.058-3.319,0.171-3.992c0.12-0.674,0.307-1.218,0.557-1.633
			c0.399-0.786,1.045-1.486,1.931-2.102c0.869-0.622,1.955-0.941,3.256-0.957c1.315,0.016,2.412,0.336,3.289,0.961
			c0.871,0.617,1.498,1.32,1.886,2.109c0.278,0.414,0.473,0.957,0.577,1.629c0.099,0.672,0.146,2,0.146,3.984
			c0,1.953-0.049,3.273-0.146,3.961c-0.106,0.688-0.299,1.238-0.58,1.652c-0.385,0.789-1.014,1.484-1.883,2.086
			c-0.877,0.625-1.976,0.953-3.289,0.984c-1.301-0.031-2.387-0.359-3.256-0.984c-0.888-0.602-1.528-1.297-1.931-2.086
			c-0.121-0.258-0.229-0.504-0.328-0.738c-0.092-0.242-0.168-0.547-0.229-0.914C142.771,22.783,142.716,21.462,142.716,19.509z
			 M145.223,19.509c0,1.684,0.062,2.822,0.182,3.418c0.107,0.594,0.322,1.076,0.647,1.443c0.267,0.353,0.613,0.639,1.048,0.857
			c0.424,0.259,0.932,0.388,1.522,0.388c0.599,0,1.116-0.129,1.558-0.388c0.418-0.219,0.75-0.505,1.002-0.857
			c0.323-0.367,0.549-0.85,0.67-1.443c0.112-0.596,0.17-1.734,0.17-3.418c0-1.684-0.058-2.83-0.17-3.441
			c-0.121-0.578-0.347-1.053-0.67-1.42c-0.252-0.353-0.584-0.646-1.002-0.881c-0.439-0.228-0.959-0.349-1.558-0.364
			c-0.593,0.016-1.101,0.137-1.522,0.364c-0.435,0.234-0.781,0.528-1.048,0.881c-0.325,0.367-0.54,0.841-0.647,1.42
			C145.282,16.679,145.223,17.826,145.223,19.509z"/>
	</g>
	<path d="M177.299,57.33c0,1.475-1.193,2.672-2.67,2.672H74.125c-1.475,0-2.67-1.197-2.67-2.672V33.921
		c0-1.476,1.195-2.671,2.67-2.671h100.504c1.477,0,2.67,1.195,2.67,2.671V57.33L177.299,57.33z"/>
	<g>
		<g>
			<path fill="#55FFB9" d="M79.807,43.52h1.253v8.543h-1.253V43.52z"/>
			<path fill="#55FFB9" d="M83.003,49.994c0.659,0.561,1.443,0.844,2.352,0.852c1.075-0.016,1.621-0.412,1.636-1.191
				c0.008-0.637-0.352-1.02-1.079-1.146c-0.333-0.047-0.698-0.1-1.096-0.158c-0.711-0.121-1.252-0.395-1.624-0.815
				c-0.382-0.435-0.573-0.961-0.573-1.582c0-0.748,0.24-1.351,0.72-1.808c0.465-0.453,1.125-0.686,1.979-0.69
				c1.028,0.022,1.922,0.315,2.682,0.881l-0.699,1.063c-0.621-0.422-1.304-0.643-2.05-0.657c-0.386,0-0.708,0.1-0.965,0.299
				c-0.269,0.209-0.407,0.519-0.415,0.928c0,0.246,0.093,0.47,0.278,0.669c0.186,0.202,0.483,0.344,0.892,0.422
				c0.227,0.039,0.537,0.084,0.931,0.135c0.776,0.108,1.35,0.397,1.72,0.863c0.367,0.457,0.551,0.987,0.551,1.596
				c-0.042,1.635-1.009,2.463-2.904,2.486c-1.225,0-2.278-0.389-3.159-1.166L83.003,49.994z"/>
			<path fill="#55FFB9" d="M94.479,39.386h1.857v12.677h-1.857V39.386z"/>
			<path fill="#55FFB9" d="M99.221,48.992c0.979,0.831,2.141,1.252,3.488,1.264c1.598-0.021,2.404-0.609,2.428-1.767
				c0.012-0.944-0.521-1.515-1.601-1.706c-0.494-0.068-1.036-0.146-1.626-0.234c-1.057-0.18-1.858-0.582-2.409-1.209
				c-0.565-0.645-0.853-1.428-0.853-2.35c0-1.107,0.356-2.002,1.069-2.682c0.689-0.673,1.669-1.017,2.937-1.025
				c1.525,0.033,2.854,0.471,3.979,1.309l-1.036,1.578c-0.922-0.627-1.937-0.951-3.041-0.977c-0.574,0-1.052,0.147-1.435,0.445
				c-0.397,0.307-0.604,0.766-0.615,1.375c0,0.364,0.14,0.694,0.414,0.991c0.274,0.302,0.716,0.511,1.322,0.625
				c0.336,0.06,0.797,0.125,1.381,0.201c1.151,0.162,2.002,0.588,2.553,1.278c0.546,0.679,0.816,1.468,0.816,2.367
				c-0.062,2.424-1.498,3.653-4.31,3.688c-1.816,0-3.379-0.576-4.688-1.729L99.221,48.992z"/>
			<path fill="#55FFB9" d="M108.866,45.725c0-1.476,0.042-2.464,0.127-2.963c0.089-0.498,0.228-0.902,0.411-1.211
				c0.298-0.583,0.772-1.103,1.432-1.56c0.646-0.462,1.45-0.699,2.416-0.709c0.979,0.01,1.79,0.247,2.439,0.713
				c0.646,0.457,1.11,0.979,1.397,1.563c0.207,0.308,0.351,0.709,0.429,1.209c0.073,0.498,0.109,1.482,0.109,2.955
				c0,1.447-0.036,2.43-0.109,2.938c-0.078,0.51-0.222,0.918-0.429,1.227c-0.287,0.586-0.753,1.103-1.397,1.547
				c-0.649,0.465-1.465,0.707-2.439,0.73c-0.966-0.023-1.771-0.268-2.416-0.73c-0.656-0.444-1.134-0.961-1.432-1.547
				c-0.09-0.189-0.172-0.373-0.243-0.549c-0.067-0.18-0.124-0.404-0.168-0.678C108.908,48.154,108.866,47.173,108.866,45.725z
				 M110.727,45.725c0,1.25,0.045,2.094,0.135,2.535c0.078,0.44,0.238,0.799,0.479,1.071c0.197,0.262,0.455,0.474,0.776,0.637
				c0.314,0.191,0.691,0.287,1.13,0.287c0.444,0,0.83-0.096,1.155-0.287c0.31-0.163,0.558-0.375,0.742-0.637
				c0.242-0.272,0.408-0.631,0.498-1.071c0.084-0.441,0.125-1.285,0.125-2.535c0-1.248-0.041-2.101-0.125-2.554
				c-0.09-0.43-0.256-0.78-0.498-1.055c-0.187-0.263-0.435-0.479-0.742-0.652c-0.325-0.17-0.711-0.26-1.155-0.271
				c-0.438,0.012-0.813,0.102-1.13,0.271c-0.321,0.175-0.579,0.392-0.776,0.652c-0.241,0.272-0.401,0.625-0.479,1.055
				C110.771,43.625,110.727,44.477,110.727,45.725z"/>
			<path fill="#55FFB9" d="M120.145,39.386h1.858v10.869h5.983v1.808h-7.844V39.386H120.145z"/>
			<path fill="#55FFB9" d="M136.339,49.229h-4.655l-0.943,2.834h-1.971l4.463-12.677h1.559l4.464,12.677h-1.963L136.339,49.229z
				 M135.809,47.525l-1.775-5.545h-0.034l-1.776,5.545H135.809z"/>
			<path fill="#55FFB9" d="M141.671,41.089h-3.364v-1.703h8.592v1.703h-3.367v10.974h-1.858L141.671,41.089L141.671,41.089z"/>
			<path fill="#55FFB9" d="M148.486,39.386h7.845v1.808h-5.983v3.629h5.108v1.701h-5.108v3.731h5.983v1.808h-7.845V39.386z"/>
			<path fill="#55FFB9" d="M158.393,39.386h4.295c1.662,0.013,2.91,0.726,3.739,2.14c0.298,0.477,0.486,0.975,0.564,1.496
				c0.061,0.521,0.092,1.422,0.092,2.703c0,1.362-0.047,2.312-0.144,2.854c-0.045,0.271-0.112,0.516-0.203,0.729
				c-0.094,0.209-0.209,0.428-0.344,0.652c-0.358,0.598-0.858,1.09-1.5,1.479c-0.636,0.418-1.412,0.625-2.334,0.625h-4.17V39.386
				H158.393z M160.249,50.255h2.228c1.045,0,1.805-0.369,2.276-1.106c0.207-0.271,0.34-0.617,0.396-1.037
				c0.049-0.41,0.074-1.185,0.074-2.316c0-1.104-0.024-1.895-0.074-2.369c-0.067-0.477-0.229-0.861-0.479-1.158
				c-0.519-0.738-1.248-1.096-2.192-1.072h-2.228V50.255z"/>
		</g>
	</g>
</g>
</svg>
