<?xml version="1.0" encoding="utf-8"?>
<!-- Generator: Adobe Illustrator 16.0.0, SVG Export Plug-In . SVG Version: 6.00 Build 0)  -->
<!DOCTYPE svg PUBLIC "-//W3C//DTD SVG 1.1//EN" "http://www.w3.org/Graphics/SVG/1.1/DTD/svg11.dtd">
<svg version="1.1" id="Layer_1" xmlns="http://www.w3.org/2000/svg" xmlns:xlink="http://www.w3.org/1999/xlink" x="0px" y="0px"
	 width="25.51px" height="42.52px" viewBox="0 0 25.51 42.52" enable-background="new 0 0 25.51 42.52" xml:space="preserve">
<g>
	<path d="M23.518,21.989c0,0.281-0.228,0.509-0.509,0.509h-22.5C0.228,22.497,0,22.27,0,21.989v-4.463
		c0-0.281,0.228-0.51,0.509-0.51h22.5c0.281,0,0.509,0.229,0.509,0.51V21.989L23.518,21.989z"/>
	<g>
		<path fill="#FFFFFF" d="M1.673,18.568h0.849c0.092,0,0.181,0.009,0.267,0.026c0.085,0.023,0.172,0.071,0.26,0.143
			c0.074,0.055,0.133,0.132,0.18,0.232c0.048,0.097,0.072,0.212,0.072,0.345c0,0.179-0.061,0.342-0.183,0.489
			c-0.125,0.154-0.309,0.233-0.55,0.238h-0.54v0.943H1.673V18.568L1.673,18.568z M2.028,19.697h0.526
			c0.132-0.002,0.231-0.044,0.298-0.127c0.063-0.08,0.095-0.169,0.095-0.267c0-0.081-0.013-0.149-0.039-0.204
			c-0.027-0.051-0.064-0.09-0.112-0.119c-0.073-0.047-0.158-0.07-0.254-0.067H2.028V19.697z"/>
		<path fill="#FFFFFF" d="M4.634,20.444H3.746l-0.18,0.541H3.19l0.851-2.417h0.297l0.851,2.417H4.815L4.634,20.444z M4.532,20.119
			l-0.338-1.058H4.188l-0.339,1.058H4.532z"/>
		<path fill="#FFFFFF" d="M5.65,18.892H5.009v-0.324h1.638v0.324H6.005v2.093H5.65V18.892L5.65,18.892z"/>
		<path fill="#FFFFFF" d="M6.95,18.568h0.354v2.417H6.95V18.568z"/>
		<path fill="#FFFFFF" d="M7.825,18.568h1.496v0.345H8.18v0.691h0.974v0.325H8.18v0.711h1.141v0.345H7.825V18.568z"/>
		<path fill="#FFFFFF" d="M9.713,18.568h0.334l1.061,1.718h0.006v-1.718h0.354v2.417h-0.336l-1.059-1.719h-0.006v1.719H9.713V18.568
			z"/>
		<path fill="#FFFFFF" d="M12.434,18.892h-0.642v-0.324h1.639v0.324h-0.643v2.093h-0.354V18.892z"/>
		<path fill="#FFFFFF" d="M14.405,20.681l1.061-1.789h-1.053v-0.324h1.486v0.275l-1.1,1.797h1.1v0.345h-1.494V20.681L14.405,20.681z
			"/>
		<path fill="#FFFFFF" d="M16.31,18.568h1.495v0.345h-1.141v0.691h0.974v0.325h-0.974v0.711h1.141v0.345H16.31V18.568z"/>
		<path fill="#FFFFFF" d="M18.197,18.568h0.915c0.195,0,0.354,0.053,0.478,0.159c0.148,0.12,0.226,0.292,0.232,0.516
			c-0.005,0.328-0.155,0.551-0.452,0.67l0.542,1.072h-0.421l-0.485-1.033h-0.454v1.033h-0.354V18.568z M18.552,19.627h0.537
			c0.134-0.003,0.233-0.042,0.3-0.12c0.065-0.072,0.099-0.16,0.099-0.266c-0.002-0.127-0.041-0.218-0.118-0.274
			c-0.06-0.05-0.146-0.075-0.261-0.075h-0.557V19.627L18.552,19.627z"/>
		<path fill="#FFFFFF" d="M20.188,19.776c0-0.281,0.008-0.469,0.023-0.564c0.018-0.096,0.044-0.172,0.079-0.23
			c0.057-0.111,0.147-0.211,0.273-0.298c0.122-0.088,0.276-0.133,0.46-0.136c0.187,0.003,0.342,0.048,0.466,0.137
			c0.123,0.087,0.212,0.187,0.267,0.298c0.039,0.059,0.066,0.136,0.082,0.23c0.014,0.095,0.021,0.283,0.021,0.563
			c0,0.276-0.007,0.463-0.021,0.561c-0.016,0.098-0.043,0.175-0.082,0.233c-0.055,0.112-0.144,0.21-0.267,0.295
			c-0.124,0.089-0.279,0.135-0.466,0.14c-0.184-0.005-0.338-0.051-0.46-0.14c-0.126-0.085-0.216-0.183-0.273-0.295
			c-0.017-0.036-0.032-0.071-0.046-0.104c-0.014-0.034-0.023-0.077-0.033-0.129C20.196,20.239,20.188,20.052,20.188,19.776z
			 M20.543,19.776c0,0.238,0.009,0.399,0.026,0.483c0.015,0.085,0.045,0.152,0.091,0.205c0.038,0.05,0.087,0.09,0.148,0.121
			c0.06,0.036,0.132,0.055,0.215,0.055c0.085,0,0.158-0.019,0.221-0.055c0.06-0.031,0.106-0.072,0.142-0.121
			c0.046-0.053,0.078-0.121,0.095-0.205s0.024-0.245,0.024-0.483s-0.008-0.4-0.024-0.486c-0.017-0.082-0.049-0.149-0.095-0.201
			c-0.035-0.05-0.082-0.091-0.142-0.124c-0.062-0.032-0.136-0.05-0.221-0.052c-0.083,0.002-0.155,0.02-0.215,0.052
			c-0.062,0.033-0.11,0.074-0.148,0.124c-0.046,0.052-0.077,0.119-0.091,0.201C20.552,19.375,20.543,19.537,20.543,19.776z"/>
	</g>
	<path d="M25.505,25.126c0,0.209-0.17,0.378-0.378,0.378H9c-0.209,0-0.378-0.169-0.378-0.378v-3.312
		c0-0.209,0.169-0.378,0.378-0.378h16.127c0.208,0,0.378,0.169,0.378,0.378V25.126z"/>
	<g>
		<path fill="#FFE100" d="M9.804,23.173h0.177v1.208H9.804V23.173z"/>
		<path fill="#FFE100" d="M10.256,24.088c0.093,0.079,0.204,0.119,0.333,0.12c0.152-0.002,0.229-0.058,0.231-0.168
			c0.001-0.09-0.05-0.145-0.153-0.162c-0.047-0.007-0.099-0.015-0.155-0.022c-0.101-0.017-0.177-0.056-0.23-0.115
			c-0.054-0.062-0.081-0.136-0.081-0.224c0-0.106,0.034-0.191,0.102-0.256c0.065-0.064,0.159-0.097,0.28-0.098
			c0.146,0.003,0.272,0.045,0.379,0.124l-0.099,0.15c-0.088-0.06-0.185-0.091-0.29-0.093c-0.055,0-0.101,0.015-0.137,0.042
			c-0.038,0.029-0.058,0.073-0.059,0.132c0,0.034,0.013,0.066,0.039,0.095c0.026,0.028,0.068,0.048,0.126,0.06
			c0.032,0.005,0.076,0.012,0.131,0.019c0.11,0.016,0.191,0.057,0.244,0.122c0.052,0.064,0.078,0.14,0.078,0.226
			c-0.006,0.231-0.143,0.349-0.411,0.352c-0.173,0-0.322-0.055-0.447-0.165L10.256,24.088z"/>
		<path fill="#FFE100" d="M13.051,23.88c-0.038,0.166-0.111,0.294-0.218,0.383c-0.11,0.089-0.241,0.133-0.392,0.133
			c-0.136-0.003-0.25-0.038-0.342-0.103c-0.092-0.063-0.16-0.137-0.202-0.22c-0.013-0.026-0.024-0.053-0.034-0.077
			c-0.01-0.025-0.018-0.058-0.024-0.096c-0.012-0.072-0.018-0.211-0.018-0.416c0-0.208,0.006-0.348,0.018-0.418
			c0.013-0.07,0.032-0.128,0.059-0.171c0.042-0.083,0.109-0.157,0.203-0.222c0.091-0.065,0.205-0.099,0.341-0.101
			c0.168,0.002,0.304,0.053,0.41,0.153c0.106,0.102,0.173,0.227,0.2,0.377h-0.279c-0.021-0.072-0.061-0.134-0.117-0.185
			c-0.059-0.049-0.13-0.074-0.215-0.075c-0.062,0.002-0.115,0.015-0.16,0.038c-0.045,0.024-0.082,0.056-0.109,0.093
			c-0.034,0.038-0.057,0.088-0.068,0.148c-0.013,0.064-0.02,0.185-0.02,0.361s0.007,0.297,0.02,0.358
			c0.011,0.062,0.034,0.113,0.068,0.151c0.028,0.037,0.064,0.067,0.11,0.091c0.044,0.026,0.098,0.04,0.16,0.04
			c0.148,0,0.259-0.081,0.332-0.245H13.051L13.051,23.88z"/>
		<path fill="#FFE100" d="M13.221,23.485c0-0.209,0.006-0.349,0.018-0.419c0.013-0.071,0.032-0.128,0.059-0.172
			c0.041-0.082,0.109-0.156,0.202-0.221c0.091-0.065,0.204-0.099,0.342-0.1c0.138,0.001,0.253,0.034,0.345,0.101
			c0.092,0.064,0.157,0.139,0.197,0.221c0.029,0.044,0.05,0.101,0.061,0.172c0.012,0.07,0.016,0.209,0.016,0.418
			c0,0.204-0.004,0.344-0.016,0.415c-0.011,0.072-0.031,0.13-0.061,0.174c-0.04,0.083-0.105,0.155-0.197,0.219
			c-0.092,0.065-0.207,0.101-0.345,0.104c-0.138-0.003-0.251-0.038-0.342-0.104c-0.093-0.063-0.161-0.136-0.202-0.219
			c-0.014-0.027-0.025-0.053-0.035-0.078c-0.009-0.025-0.018-0.057-0.024-0.096C13.227,23.828,13.221,23.69,13.221,23.485z
			 M13.483,23.485c0,0.177,0.007,0.296,0.02,0.358c0.012,0.062,0.033,0.113,0.068,0.151c0.027,0.037,0.064,0.067,0.109,0.09
			c0.045,0.027,0.098,0.041,0.16,0.041s0.117-0.014,0.163-0.041c0.044-0.022,0.079-0.053,0.104-0.09
			c0.035-0.038,0.059-0.089,0.07-0.151c0.013-0.062,0.019-0.182,0.019-0.358s-0.006-0.297-0.019-0.361
			c-0.012-0.061-0.035-0.11-0.07-0.149c-0.025-0.037-0.061-0.067-0.104-0.092c-0.046-0.024-0.101-0.037-0.163-0.039
			c-0.062,0.002-0.115,0.015-0.16,0.039s-0.082,0.056-0.109,0.092c-0.035,0.039-0.057,0.089-0.068,0.149
			C13.49,23.188,13.483,23.308,13.483,23.485z"/>
		<path fill="#FFE100" d="M14.816,22.588h0.247l0.787,1.274h0.005v-1.274h0.263v1.793h-0.249l-0.786-1.274h-0.004v1.274h-0.263
			V22.588z"/>
		<path fill="#FFE100" d="M16.835,22.828h-0.477v-0.24h1.215v0.24h-0.476v1.553h-0.263V22.828L16.835,22.828z"/>
		<path fill="#FFE100" d="M18.502,23.98h-0.659l-0.133,0.401h-0.279l0.632-1.793h0.221l0.632,1.793h-0.278L18.502,23.98z
			 M18.427,23.739l-0.251-0.784h-0.005l-0.251,0.784H18.427z"/>
		<path fill="#FFE100" d="M19.147,22.588h0.264v1.793h-0.264V22.588z"/>
		<path fill="#FFE100" d="M19.798,22.588h0.248l0.786,1.274h0.005v-1.274H21.1v1.793h-0.249l-0.785-1.274h-0.005v1.274h-0.263
			V22.588z"/>
		<path fill="#FFE100" d="M21.521,22.588h1.109v0.256h-0.846v0.513h0.723v0.241h-0.723v0.527h0.846v0.256h-1.109V22.588z"/>
		<path fill="#FFE100" d="M22.921,22.588h0.608c0.235,0.001,0.411,0.103,0.528,0.302c0.043,0.068,0.069,0.139,0.08,0.212
			c0.009,0.074,0.014,0.201,0.014,0.383c0,0.192-0.008,0.327-0.021,0.403c-0.006,0.038-0.016,0.073-0.027,0.104
			c-0.014,0.029-0.03,0.061-0.049,0.092c-0.051,0.085-0.122,0.154-0.213,0.209c-0.09,0.06-0.199,0.089-0.33,0.089h-0.59V22.588
			L22.921,22.588z M23.185,24.125h0.314c0.148,0,0.256-0.052,0.322-0.156c0.029-0.038,0.049-0.088,0.057-0.146
			c0.007-0.059,0.01-0.168,0.01-0.328c0-0.156-0.003-0.268-0.01-0.335c-0.01-0.067-0.033-0.122-0.068-0.164
			c-0.073-0.104-0.176-0.155-0.31-0.151h-0.315V24.125L23.185,24.125z"/>
	</g>
</g>
</svg>
