<?xml version="1.0" encoding="utf-8"?>
<!-- Generator: Adobe Illustrator 16.0.0, SVG Export Plug-In . SVG Version: 6.00 Build 0)  -->
<!DOCTYPE svg PUBLIC "-//W3C//DTD SVG 1.1//EN" "http://www.w3.org/Graphics/SVG/1.1/DTD/svg11.dtd">
<svg version="1.1" id="Layer_1" xmlns="http://www.w3.org/2000/svg" xmlns:xlink="http://www.w3.org/1999/xlink" x="0px" y="0px"
	 width="25.51px" height="42.52px" viewBox="0 0 25.51 42.52" enable-background="new 0 0 25.51 42.52" xml:space="preserve">
<g>
	<path d="M23.909,22c0,0.286-0.23,0.519-0.518,0.519H0.518C0.232,22.519,0,22.287,0,22v-4.537c0-0.286,0.231-0.518,0.518-0.518
		h22.874c0.286,0,0.518,0.231,0.518,0.518V22L23.909,22z"/>
	<g>
		<path fill="#FFFFFF" d="M1.701,18.523h0.863c0.094,0,0.184,0.009,0.271,0.027c0.087,0.023,0.175,0.071,0.265,0.145
			c0.075,0.055,0.136,0.134,0.183,0.236c0.049,0.099,0.073,0.216,0.073,0.351c0,0.182-0.062,0.348-0.186,0.497
			c-0.128,0.157-0.314,0.238-0.559,0.242H2.062v0.959h-0.36V18.523L1.701,18.523z M2.062,19.67h0.535
			c0.134-0.002,0.235-0.045,0.303-0.128c0.064-0.082,0.096-0.172,0.096-0.271c0-0.082-0.013-0.151-0.039-0.208
			c-0.027-0.051-0.065-0.091-0.115-0.12c-0.074-0.049-0.16-0.072-0.258-0.069H2.062V19.67L2.062,19.67z"/>
		<path fill="#FFFFFF" d="M4.711,20.43H3.808l-0.183,0.55H3.244l0.865-2.457h0.302l0.865,2.457h-0.38L4.711,20.43z M4.608,20.1
			l-0.345-1.074H4.257L3.913,20.1H4.608z"/>
		<path fill="#FFFFFF" d="M5.745,18.853H5.092v-0.33h1.666v0.33H6.105v2.127H5.744L5.745,18.853L5.745,18.853z"/>
		<path fill="#FFFFFF" d="M7.066,18.523h0.36v2.457h-0.36V18.523z"/>
		<path fill="#FFFFFF" d="M7.956,18.523h1.521v0.351h-1.16v0.703h0.99v0.33h-0.99v0.723h1.16v0.351H7.956V18.523z"/>
		<path fill="#FFFFFF" d="M9.875,18.523h0.34l1.078,1.747h0.006v-1.747h0.361v2.457h-0.341l-1.076-1.747h-0.007v1.747h-0.36V18.523
			L9.875,18.523z"/>
		<path fill="#FFFFFF" d="M12.641,18.853h-0.652v-0.33h1.666v0.33h-0.653v2.127h-0.36V18.853L12.641,18.853z"/>
		<path fill="#FFFFFF" d="M14.646,20.671l1.078-1.818h-1.07v-0.33h1.512v0.28l-1.117,1.826h1.117v0.351h-1.52V20.671L14.646,20.671z
			"/>
		<path fill="#FFFFFF" d="M16.581,18.523h1.521v0.351h-1.16v0.703h0.99v0.33h-0.99v0.723h1.16v0.351h-1.521V18.523L16.581,18.523z"
			/>
		<path fill="#FFFFFF" d="M18.501,18.523h0.93c0.199,0,0.361,0.054,0.486,0.162c0.15,0.122,0.229,0.297,0.236,0.523
			c-0.005,0.334-0.158,0.561-0.46,0.682l0.552,1.09h-0.43l-0.492-1.05h-0.461v1.05h-0.361V18.523L18.501,18.523z M18.861,19.6h0.547
			c0.136-0.002,0.237-0.043,0.304-0.122c0.067-0.073,0.101-0.163,0.101-0.271c-0.003-0.128-0.042-0.221-0.12-0.278
			c-0.061-0.051-0.148-0.076-0.266-0.076h-0.565V19.6L18.861,19.6z"/>
		<path fill="#FFFFFF" d="M20.525,19.751c0-0.286,0.008-0.478,0.024-0.574c0.018-0.097,0.044-0.175,0.08-0.234
			c0.058-0.113,0.15-0.214,0.277-0.303c0.125-0.09,0.281-0.136,0.469-0.138c0.189,0.002,0.347,0.049,0.473,0.139
			c0.125,0.089,0.215,0.189,0.271,0.303c0.04,0.06,0.068,0.138,0.083,0.234s0.021,0.288,0.021,0.573c0,0.28-0.007,0.471-0.021,0.569
			c-0.016,0.1-0.043,0.179-0.083,0.237c-0.057,0.114-0.146,0.214-0.271,0.301c-0.126,0.09-0.284,0.137-0.473,0.142
			c-0.188-0.005-0.344-0.052-0.469-0.142c-0.127-0.087-0.22-0.187-0.277-0.301c-0.018-0.037-0.033-0.072-0.047-0.105
			c-0.014-0.035-0.024-0.079-0.033-0.132C20.533,20.222,20.525,20.032,20.525,19.751z M20.886,19.751
			c0,0.242,0.009,0.406,0.025,0.491c0.016,0.086,0.047,0.155,0.094,0.208c0.038,0.051,0.088,0.092,0.15,0.123
			c0.061,0.037,0.135,0.056,0.219,0.056c0.086,0,0.161-0.019,0.225-0.056c0.061-0.031,0.107-0.072,0.145-0.123
			c0.046-0.053,0.078-0.122,0.096-0.208c0.016-0.085,0.024-0.249,0.024-0.491s-0.009-0.407-0.024-0.495
			c-0.018-0.083-0.05-0.151-0.096-0.204c-0.037-0.051-0.084-0.093-0.145-0.127c-0.063-0.032-0.139-0.05-0.225-0.052
			c-0.084,0.002-0.158,0.02-0.219,0.052c-0.062,0.034-0.112,0.076-0.15,0.127c-0.047,0.053-0.078,0.121-0.094,0.204
			C20.894,19.344,20.886,19.509,20.886,19.751z"/>
	</g>
	<path d="M25.499,25.191c0,0.212-0.172,0.384-0.385,0.384H10.661c-0.212,0-0.384-0.172-0.384-0.384v-3.367
		c0-0.212,0.172-0.384,0.384-0.384h14.454c0.213,0,0.385,0.172,0.385,0.384V25.191L25.499,25.191z"/>
	<g>
		<g>
			<path fill="#55FFB9" d="M11.478,23.204h0.18v1.229h-0.18V23.204z"/>
			<path fill="#55FFB9" d="M11.938,24.136c0.095,0.08,0.208,0.121,0.338,0.122c0.155-0.002,0.233-0.06,0.235-0.171
				c0.001-0.092-0.05-0.147-0.155-0.165c-0.048-0.007-0.1-0.015-0.157-0.023c-0.103-0.017-0.18-0.057-0.234-0.117
				c-0.055-0.062-0.082-0.138-0.082-0.228c0-0.107,0.034-0.194,0.104-0.26c0.067-0.065,0.162-0.099,0.285-0.1
				c0.147,0.004,0.276,0.046,0.386,0.127l-0.101,0.153c-0.089-0.061-0.188-0.093-0.295-0.095c-0.056,0-0.102,0.015-0.139,0.043
				c-0.039,0.03-0.059,0.074-0.06,0.134c0,0.035,0.014,0.067,0.04,0.096c0.027,0.029,0.07,0.05,0.128,0.061
				c0.033,0.006,0.077,0.013,0.134,0.02c0.112,0.016,0.194,0.058,0.248,0.124c0.053,0.066,0.079,0.143,0.079,0.229
				c-0.006,0.235-0.145,0.354-0.417,0.357c-0.176,0-0.328-0.056-0.455-0.167L11.938,24.136z"/>
			<path fill="#55FFB9" d="M13.588,22.61h0.267v1.823h-0.267V22.61z"/>
			<path fill="#55FFB9" d="M14.27,23.991c0.142,0.119,0.308,0.18,0.502,0.182c0.229-0.003,0.346-0.088,0.349-0.254
				c0.002-0.136-0.074-0.218-0.229-0.245c-0.071-0.01-0.149-0.021-0.233-0.034c-0.152-0.025-0.268-0.084-0.348-0.174
				c-0.081-0.093-0.122-0.205-0.122-0.338c0-0.159,0.052-0.288,0.153-0.386c0.1-0.097,0.24-0.146,0.423-0.147
				c0.22,0.005,0.41,0.067,0.572,0.188l-0.149,0.227c-0.133-0.09-0.278-0.137-0.438-0.14c-0.082,0-0.15,0.021-0.206,0.063
				c-0.057,0.044-0.087,0.11-0.089,0.197c0,0.053,0.021,0.101,0.061,0.144s0.103,0.073,0.189,0.09
				c0.049,0.008,0.115,0.018,0.199,0.028c0.165,0.023,0.287,0.085,0.367,0.184c0.078,0.098,0.117,0.212,0.117,0.341
				c-0.01,0.349-0.216,0.525-0.62,0.53c-0.261,0-0.485-0.083-0.675-0.249L14.27,23.991z"/>
			<path fill="#55FFB9" d="M15.657,23.522c0-0.213,0.006-0.354,0.018-0.427c0.014-0.071,0.033-0.13,0.06-0.174
				c0.043-0.084,0.111-0.158,0.206-0.225c0.093-0.066,0.209-0.101,0.348-0.102c0.141,0.001,0.257,0.035,0.351,0.103
				c0.093,0.065,0.159,0.141,0.2,0.225c0.03,0.045,0.051,0.103,0.062,0.174c0.01,0.072,0.016,0.214,0.016,0.425
				c0,0.209-0.006,0.35-0.016,0.423c-0.012,0.073-0.032,0.132-0.062,0.177c-0.041,0.084-0.107,0.158-0.2,0.223
				c-0.094,0.066-0.211,0.102-0.351,0.104c-0.139-0.003-0.255-0.038-0.348-0.104c-0.095-0.064-0.163-0.139-0.206-0.223
				c-0.013-0.027-0.024-0.054-0.035-0.079c-0.01-0.026-0.018-0.059-0.024-0.098C15.663,23.871,15.657,23.73,15.657,23.522z
				 M15.925,23.522c0,0.18,0.006,0.301,0.02,0.364c0.011,0.063,0.033,0.115,0.068,0.154c0.028,0.037,0.065,0.068,0.111,0.092
				c0.046,0.027,0.1,0.041,0.163,0.041s0.119-0.014,0.166-0.041c0.044-0.023,0.08-0.055,0.106-0.092
				c0.035-0.039,0.059-0.091,0.072-0.154c0.012-0.063,0.018-0.185,0.018-0.364s-0.006-0.303-0.018-0.367
				c-0.014-0.062-0.037-0.112-0.072-0.152c-0.026-0.037-0.062-0.068-0.106-0.094c-0.047-0.024-0.103-0.037-0.166-0.039
				c-0.063,0.002-0.117,0.015-0.163,0.039c-0.046,0.025-0.083,0.057-0.111,0.094c-0.035,0.039-0.058,0.09-0.068,0.152
				C15.931,23.22,15.925,23.342,15.925,23.522z"/>
			<path fill="#55FFB9" d="M17.278,22.61h0.268v1.563h0.861v0.26h-1.129V22.61L17.278,22.61z"/>
			<path fill="#55FFB9" d="M19.608,24.026h-0.67l-0.136,0.407H18.52l0.642-1.823h0.225l0.642,1.823h-0.282L19.608,24.026z
				 M19.532,23.781l-0.256-0.798h-0.005l-0.255,0.798H19.532z"/>
			<path fill="#55FFB9" d="M20.375,22.855h-0.483V22.61h1.234v0.245h-0.483v1.578h-0.268V22.855L20.375,22.855z"/>
			<path fill="#55FFB9" d="M21.354,22.61h1.129v0.261h-0.861v0.521h0.735v0.245h-0.735v0.536h0.861v0.26h-1.129V22.61z"/>
			<path fill="#55FFB9" d="M22.78,22.61h0.617c0.238,0.002,0.418,0.104,0.537,0.308c0.043,0.069,0.07,0.141,0.082,0.216
				c0.009,0.074,0.014,0.204,0.014,0.389c0,0.195-0.008,0.332-0.021,0.41c-0.006,0.039-0.016,0.074-0.029,0.104
				s-0.029,0.062-0.049,0.094c-0.052,0.086-0.124,0.157-0.216,0.213c-0.092,0.061-0.203,0.09-0.336,0.09h-0.6L22.78,22.61
				L22.78,22.61z M23.047,24.173h0.32c0.149,0,0.259-0.053,0.327-0.159c0.029-0.039,0.049-0.089,0.057-0.149
				c0.008-0.059,0.012-0.17,0.012-0.333c0-0.158-0.004-0.272-0.012-0.341c-0.01-0.068-0.032-0.124-0.068-0.166
				c-0.074-0.106-0.18-0.158-0.315-0.154h-0.32V24.173z"/>
		</g>
	</g>
</g>
</svg>
