<?xml version="1.0" encoding="utf-8"?>
<!-- Generator: Adobe Illustrator 16.0.0, SVG Export Plug-In . SVG Version: 6.00 Build 0)  -->
<!DOCTYPE svg PUBLIC "-//W3C//DTD SVG 1.1//EN" "http://www.w3.org/Graphics/SVG/1.1/DTD/svg11.dtd">
<svg version="1.1" id="Layer_1" xmlns="http://www.w3.org/2000/svg" xmlns:xlink="http://www.w3.org/1999/xlink" x="0px" y="0px"
	 width="25.51px" height="42.52px" viewBox="0 0 25.51 42.52" enable-background="new 0 0 25.51 42.52" xml:space="preserve">
<g>
	<path d="M24.382,22.011c0,0.291-0.236,0.527-0.527,0.527H0.528C0.236,22.538,0,22.302,0,22.011v-4.627
		c0-0.292,0.236-0.528,0.528-0.528h23.327c0.291,0,0.527,0.236,0.527,0.528V22.011L24.382,22.011z"/>
	<g>
		<path fill="#FFFFFF" d="M1.735,18.464h0.88c0.096,0,0.188,0.009,0.277,0.027c0.089,0.024,0.179,0.073,0.27,0.147
			c0.077,0.057,0.139,0.137,0.187,0.241c0.05,0.101,0.075,0.22,0.075,0.357c0,0.186-0.063,0.354-0.19,0.507
			c-0.13,0.16-0.32,0.243-0.57,0.248h-0.56v0.978H1.735V18.464L1.735,18.464z M2.103,19.634h0.545
			c0.137-0.002,0.24-0.046,0.309-0.131c0.065-0.083,0.098-0.175,0.098-0.276c0-0.084-0.013-0.155-0.04-0.212
			c-0.028-0.052-0.066-0.093-0.117-0.123c-0.076-0.05-0.164-0.073-0.264-0.07H2.103V19.634z"/>
		<path fill="#FFFFFF" d="M4.804,20.409h-0.92L3.697,20.97h-0.39l0.882-2.506h0.308L5.38,20.97H4.992L4.804,20.409z M4.699,20.073
			l-0.352-1.096H4.341L3.99,20.073H4.699z"/>
		<path fill="#FFFFFF" d="M5.858,18.801H5.193v-0.337h1.698v0.337H6.226v2.169H5.858V18.801L5.858,18.801z"/>
		<path fill="#FFFFFF" d="M7.206,18.464h0.367v2.506H7.206V18.464z"/>
		<path fill="#FFFFFF" d="M8.113,18.464h1.551v0.357H8.48v0.717h1.01v0.337H8.48v0.737h1.183v0.357H8.113V18.464L8.113,18.464z"/>
		<path fill="#FFFFFF" d="M10.07,18.464h0.347l1.099,1.781h0.007v-1.781h0.367v2.506h-0.348l-1.097-1.781h-0.007v1.781H10.07V18.464
			z"/>
		<path fill="#FFFFFF" d="M12.891,18.801h-0.665v-0.337h1.698v0.337h-0.665v2.169h-0.368L12.891,18.801L12.891,18.801z"/>
		<path fill="#FFFFFF" d="M14.935,20.656l1.1-1.854h-1.09v-0.337h1.54v0.285l-1.14,1.863h1.14v0.357h-1.55V20.656L14.935,20.656z"/>
		<path fill="#FFFFFF" d="M16.909,18.464h1.551v0.357h-1.184v0.717h1.01v0.337h-1.01v0.737h1.184v0.357h-1.551V18.464z"/>
		<path fill="#FFFFFF" d="M18.866,18.464h0.949c0.202,0,0.367,0.055,0.494,0.165c0.154,0.125,0.234,0.303,0.241,0.534
			c-0.004,0.341-0.161,0.572-0.468,0.694l0.562,1.112h-0.437l-0.503-1.071h-0.471v1.071h-0.367L18.866,18.464L18.866,18.464z
			 M19.234,19.563h0.558c0.137-0.003,0.241-0.044,0.31-0.125c0.068-0.074,0.103-0.166,0.103-0.275
			c-0.003-0.131-0.043-0.226-0.123-0.284c-0.062-0.052-0.152-0.077-0.27-0.077h-0.578L19.234,19.563L19.234,19.563z"/>
		<path fill="#FFFFFF" d="M20.931,19.717c0-0.292,0.009-0.487,0.025-0.586c0.018-0.099,0.045-0.179,0.082-0.239
			c0.059-0.115,0.152-0.218,0.282-0.309c0.128-0.091,0.286-0.138,0.478-0.14c0.193,0.002,0.354,0.049,0.482,0.141
			c0.128,0.091,0.22,0.193,0.276,0.31c0.041,0.061,0.069,0.14,0.085,0.238c0.015,0.099,0.021,0.294,0.021,0.585
			c0,0.286-0.008,0.479-0.021,0.581c-0.016,0.101-0.044,0.181-0.085,0.242c-0.057,0.115-0.149,0.217-0.276,0.306
			c-0.129,0.092-0.289,0.14-0.482,0.145c-0.191-0.005-0.35-0.053-0.478-0.145c-0.13-0.089-0.224-0.19-0.282-0.306
			c-0.019-0.038-0.035-0.074-0.049-0.108c-0.014-0.036-0.024-0.08-0.033-0.134C20.938,20.197,20.931,20.003,20.931,19.717z
			 M21.298,19.717c0,0.247,0.01,0.414,0.027,0.501c0.016,0.087,0.047,0.158,0.095,0.212c0.039,0.052,0.09,0.094,0.153,0.126
			c0.062,0.037,0.137,0.057,0.224,0.057c0.088,0,0.163-0.02,0.229-0.057c0.062-0.032,0.11-0.074,0.146-0.126
			c0.048-0.054,0.081-0.125,0.099-0.212c0.017-0.087,0.025-0.254,0.025-0.501s-0.009-0.415-0.025-0.505
			c-0.018-0.085-0.051-0.154-0.099-0.208c-0.036-0.052-0.085-0.095-0.146-0.13c-0.064-0.033-0.141-0.051-0.229-0.053
			c-0.087,0.002-0.161,0.02-0.224,0.053c-0.063,0.035-0.114,0.078-0.153,0.13c-0.048,0.054-0.079,0.123-0.095,0.208
			C21.308,19.302,21.298,19.47,21.298,19.717z"/>
	</g>
	<path d="M25.501,25.264c0,0.216-0.176,0.392-0.393,0.392H11.861c-0.216,0-0.392-0.176-0.392-0.392V21.83
		c0-0.216,0.176-0.392,0.392-0.392h13.248c0.217,0,0.393,0.176,0.393,0.392V25.264L25.501,25.264z"/>
	<g>
		<path fill="#FF5555" d="M12.694,23.239h0.184v1.253h-0.184V23.239z"/>
		<path fill="#FF5555" d="M13.163,24.188c0.097,0.082,0.211,0.124,0.345,0.125c0.158-0.003,0.237-0.061,0.24-0.175
			c0.001-0.094-0.052-0.149-0.158-0.168c-0.049-0.007-0.103-0.016-0.161-0.023c-0.104-0.018-0.184-0.058-0.238-0.119
			c-0.056-0.063-0.084-0.142-0.084-0.232c0-0.109,0.035-0.198,0.106-0.266c0.067-0.066,0.165-0.1,0.29-0.101
			c0.15,0.003,0.282,0.046,0.394,0.129l-0.103,0.156c-0.091-0.062-0.191-0.095-0.301-0.097c-0.057,0-0.104,0.015-0.142,0.044
			c-0.04,0.03-0.06,0.076-0.061,0.136c0,0.036,0.014,0.069,0.04,0.099c0.027,0.029,0.071,0.051,0.131,0.062
			c0.034,0.006,0.079,0.013,0.137,0.021c0.114,0.016,0.199,0.058,0.253,0.126c0.054,0.067,0.081,0.146,0.081,0.234
			c-0.006,0.239-0.148,0.36-0.426,0.364c-0.18,0-0.334-0.058-0.464-0.171L13.163,24.188z"/>
		<path fill="#FF5555" d="M14.846,22.632h0.272v1.594h0.878v0.266h-1.15V22.632L14.846,22.632z"/>
		<path fill="#FF5555" d="M16.237,23.562c0-0.217,0.006-0.361,0.018-0.435c0.014-0.073,0.034-0.133,0.061-0.178
			c0.045-0.085,0.114-0.162,0.211-0.229c0.094-0.068,0.213-0.103,0.354-0.104c0.145,0.002,0.264,0.037,0.358,0.104
			s0.163,0.144,0.204,0.229c0.031,0.046,0.053,0.104,0.063,0.178c0.011,0.072,0.017,0.217,0.017,0.434
			c0,0.212-0.006,0.355-0.017,0.431s-0.032,0.135-0.063,0.18c-0.041,0.086-0.109,0.162-0.204,0.228
			c-0.096,0.067-0.215,0.104-0.358,0.106c-0.141-0.003-0.26-0.039-0.354-0.106c-0.097-0.065-0.166-0.142-0.211-0.228
			c-0.013-0.027-0.024-0.055-0.035-0.08c-0.01-0.026-0.018-0.06-0.025-0.1C16.243,23.917,16.237,23.775,16.237,23.562z
			 M16.51,23.562c0,0.183,0.007,0.307,0.02,0.372c0.012,0.064,0.035,0.117,0.071,0.157c0.027,0.038,0.066,0.069,0.113,0.093
			c0.045,0.028,0.102,0.042,0.166,0.042s0.121-0.014,0.169-0.042c0.046-0.023,0.081-0.055,0.108-0.093
			c0.035-0.04,0.061-0.093,0.073-0.157c0.013-0.065,0.019-0.189,0.019-0.372s-0.006-0.308-0.019-0.374
			c-0.013-0.063-0.038-0.115-0.073-0.155c-0.027-0.038-0.063-0.07-0.108-0.096c-0.048-0.024-0.104-0.038-0.169-0.04
			c-0.064,0.002-0.12,0.016-0.166,0.04c-0.047,0.025-0.086,0.058-0.113,0.096c-0.036,0.04-0.06,0.092-0.071,0.155
			C16.517,23.254,16.51,23.379,16.51,23.562z"/>
		<path fill="#FF5555" d="M17.829,23.562c0-0.217,0.007-0.361,0.02-0.435s0.033-0.133,0.061-0.178
			c0.043-0.085,0.113-0.162,0.209-0.229c0.096-0.068,0.213-0.103,0.354-0.104c0.144,0.002,0.263,0.037,0.358,0.104
			c0.095,0.067,0.162,0.144,0.205,0.229c0.029,0.046,0.051,0.104,0.062,0.178c0.011,0.072,0.016,0.217,0.016,0.434
			c0,0.212-0.005,0.355-0.016,0.431c-0.012,0.075-0.033,0.135-0.062,0.18c-0.043,0.086-0.111,0.162-0.205,0.228
			c-0.096,0.067-0.215,0.104-0.358,0.106c-0.142-0.003-0.259-0.039-0.354-0.106c-0.096-0.065-0.166-0.142-0.209-0.228
			c-0.014-0.027-0.025-0.055-0.036-0.08c-0.01-0.026-0.019-0.06-0.024-0.1C17.836,23.917,17.829,23.775,17.829,23.562z
			 M18.103,23.562c0,0.183,0.007,0.307,0.02,0.372c0.012,0.064,0.035,0.117,0.07,0.157c0.029,0.038,0.066,0.069,0.114,0.093
			c0.046,0.028,0.101,0.042,0.165,0.042c0.065,0,0.122-0.014,0.17-0.042c0.045-0.023,0.082-0.055,0.109-0.093
			c0.035-0.04,0.059-0.093,0.072-0.157c0.013-0.065,0.019-0.189,0.019-0.372s-0.006-0.308-0.019-0.374
			c-0.014-0.063-0.037-0.115-0.072-0.155c-0.027-0.038-0.064-0.07-0.109-0.096c-0.048-0.024-0.104-0.038-0.17-0.04
			c-0.063,0.002-0.119,0.016-0.165,0.04c-0.048,0.025-0.085,0.058-0.114,0.096c-0.035,0.04-0.059,0.092-0.07,0.155
			C18.109,23.254,18.103,23.379,18.103,23.562z"/>
		<path fill="#FF5555" d="M19.506,24.04c0.144,0.122,0.313,0.184,0.512,0.186c0.234-0.003,0.353-0.09,0.356-0.259
			c0.002-0.139-0.076-0.222-0.235-0.25c-0.072-0.011-0.151-0.021-0.238-0.034c-0.155-0.027-0.272-0.086-0.353-0.178
			c-0.084-0.095-0.125-0.209-0.125-0.345c0-0.162,0.051-0.294,0.156-0.394c0.101-0.099,0.244-0.148,0.431-0.15
			c0.224,0.005,0.419,0.069,0.583,0.192l-0.151,0.231c-0.136-0.092-0.284-0.14-0.446-0.144c-0.084,0-0.154,0.021-0.211,0.065
			c-0.058,0.045-0.088,0.112-0.09,0.201c0,0.054,0.021,0.103,0.061,0.146c0.041,0.045,0.105,0.075,0.194,0.092
			c0.05,0.009,0.116,0.019,0.202,0.029c0.169,0.024,0.294,0.087,0.375,0.188c0.08,0.1,0.119,0.216,0.119,0.348
			c-0.009,0.355-0.219,0.536-0.632,0.541c-0.267,0-0.495-0.085-0.688-0.254L19.506,24.04z"/>
		<path fill="#FF5555" d="M20.981,22.632h1.15v0.265h-0.877v0.532h0.749v0.25h-0.749v0.547h0.877v0.266h-1.15V22.632z"/>
		<path fill="#FF5555" d="M22.409,22.632h0.323l-0.099,1.4h-0.129L22.409,22.632z M22.442,24.226H22.7v0.266h-0.258V24.226z"/>
		<path fill="#FF5555" d="M23.082,22.632h0.323l-0.098,1.4h-0.129L23.082,22.632z M23.116,24.226h0.258v0.266h-0.258V24.226z"/>
		<path fill="#FF5555" d="M23.755,22.632h0.324l-0.1,1.4h-0.128L23.755,22.632z M23.79,24.226h0.258v0.266H23.79V24.226z"/>
	</g>
</g>
</svg>
