<?xml version="1.0" encoding="utf-8"?>
<!-- Generator: Adobe Illustrator 16.0.0, SVG Export Plug-In . SVG Version: 6.00 Build 0)  -->
<!DOCTYPE svg PUBLIC "-//W3C//DTD SVG 1.1//EN" "http://www.w3.org/Graphics/SVG/1.1/DTD/svg11.dtd">
<svg version="1.1" id="Layer_1" xmlns="http://www.w3.org/2000/svg" xmlns:xlink="http://www.w3.org/1999/xlink" x="0px" y="0px"
	 width="173.938px" height="60.062px" viewBox="0 0 173.938 60.062" enable-background="new 0 0 173.938 60.062"
	 xml:space="preserve">
<g>
	<path d="M166.25,35.15c0,1.988-1.611,3.6-3.601,3.6H3.6c-1.988,0-3.6-1.61-3.6-3.6V3.6C0,1.612,1.611,0,3.6,0h159.05
		c1.988,0,3.602,1.611,3.602,3.601L166.25,35.15L166.25,35.15z"/>
	<g>
		<path fill="#FFFFFF" d="M11.83,10.966h5.999c0.65,0,1.279,0.062,1.886,0.188c0.605,0.164,1.219,0.5,1.84,1.008
			c0.521,0.383,0.945,0.93,1.271,1.64c0.34,0.688,0.51,1.5,0.51,2.438c0,1.266-0.433,2.417-1.295,3.457
			c-0.888,1.094-2.183,1.656-3.888,1.688h-3.817v6.67h-2.506L11.83,10.966L11.83,10.966z M14.335,18.947h3.719
			c0.933-0.016,1.634-0.314,2.104-0.896c0.446-0.564,0.671-1.192,0.671-1.884c0-0.572-0.092-1.056-0.273-1.447
			c-0.188-0.354-0.455-0.633-0.796-0.837c-0.516-0.337-1.115-0.498-1.797-0.481h-3.628V18.947z"/>
		<path fill="#FFFFFF" d="M32.756,24.23H26.48l-1.271,3.82h-2.656l6.016-17.086h2.101l6.016,17.086H34.04L32.756,24.23z
			 M32.041,21.936l-2.396-7.476h-0.045l-2.395,7.476H32.041z"/>
		<path fill="#FFFFFF" d="M39.943,13.262h-4.535v-2.297h11.579v2.297h-4.538v14.789h-2.507L39.943,13.262L39.943,13.262z"/>
		<path fill="#FFFFFF" d="M49.13,10.966h2.506v17.086H49.13V10.966z"/>
		<path fill="#FFFFFF" d="M55.318,10.966H65.89v2.438h-8.065v4.889h6.886v2.295h-6.886v5.029h8.065v2.438H55.318V10.966
			L55.318,10.966z"/>
		<path fill="#FFFFFF" d="M68.666,10.966h2.361l7.495,12.146h0.045V10.966h2.507v17.086H78.7l-7.483-12.146h-0.045v12.146h-2.506
			V10.966z"/>
		<path fill="#FFFFFF" d="M87.896,13.262H83.36v-2.297h11.58v2.297h-4.537v14.789h-2.506L87.896,13.262L87.896,13.262z"/>
		<path fill="#FFFFFF" d="M101.83,25.907l7.503-12.645h-7.44v-2.297h10.506v1.947l-7.77,12.703h7.77v2.438h-10.566L101.83,25.907
			L101.83,25.907z"/>
		<path fill="#FFFFFF" d="M115.295,10.966h10.572v2.438h-8.066v4.889h6.885v2.295h-6.885v5.029h8.066v2.438h-10.572V10.966z"/>
		<path fill="#FFFFFF" d="M128.643,10.966h6.467c1.379,0,2.506,0.375,3.375,1.125c1.049,0.853,1.596,2.066,1.643,3.646
			c-0.03,2.32-1.096,3.897-3.196,4.734l3.832,7.581h-2.979l-3.426-7.302h-3.209v7.302h-2.506L128.643,10.966L128.643,10.966z
			 M131.148,18.455h3.802c0.938-0.016,1.646-0.297,2.114-0.846c0.463-0.509,0.694-1.136,0.694-1.88
			c-0.016-0.894-0.293-1.539-0.832-1.938c-0.424-0.353-1.038-0.528-1.843-0.528h-3.938v5.192H131.148z"/>
		<path fill="#FFFFFF" d="M142.716,19.509c0-1.987,0.058-3.318,0.171-3.992c0.12-0.674,0.307-1.218,0.557-1.633
			c0.399-0.785,1.043-1.485,1.93-2.102c0.869-0.622,1.955-0.941,3.256-0.957c1.314,0.016,2.413,0.336,3.29,0.961
			c0.87,0.617,1.498,1.32,1.884,2.109c0.279,0.414,0.474,0.957,0.578,1.629c0.099,0.672,0.146,2,0.146,3.983
			c0,1.953-0.051,3.273-0.146,3.961c-0.106,0.688-0.299,1.238-0.579,1.652c-0.386,0.789-1.014,1.484-1.883,2.086
			c-0.878,0.625-1.976,0.953-3.29,0.984c-1.301-0.031-2.387-0.359-3.256-0.984c-0.887-0.602-1.528-1.297-1.93-2.086
			c-0.12-0.258-0.23-0.504-0.328-0.738c-0.092-0.241-0.167-0.547-0.229-0.914C142.771,22.782,142.716,21.462,142.716,19.509z
			 M145.223,19.509c0,1.684,0.062,2.822,0.182,3.417c0.105,0.596,0.322,1.077,0.647,1.444c0.265,0.353,0.613,0.638,1.046,0.857
			c0.424,0.258,0.935,0.387,1.523,0.387c0.6,0,1.116-0.129,1.559-0.387c0.416-0.22,0.75-0.505,1-0.857
			c0.325-0.368,0.549-0.85,0.672-1.444c0.112-0.595,0.17-1.733,0.17-3.417c0-1.683-0.058-2.829-0.17-3.44
			c-0.123-0.579-0.347-1.053-0.672-1.421c-0.25-0.353-0.584-0.646-1-0.881c-0.438-0.228-0.959-0.349-1.559-0.364
			c-0.593,0.016-1.101,0.137-1.523,0.364c-0.433,0.234-0.781,0.528-1.046,0.881c-0.325,0.368-0.542,0.841-0.647,1.421
			C145.282,16.679,145.223,17.826,145.223,19.509z"/>
	</g>
	<path d="M173.875,57.329c0,1.477-1.195,2.671-2.671,2.671H80.873c-1.477,0-2.672-1.194-2.672-2.671V33.921
		c0-1.476,1.195-2.671,2.672-2.671h90.331c1.476,0,2.671,1.195,2.671,2.671V57.329L173.875,57.329z"/>
	<g>
		<path fill="#FF5555" d="M86.557,43.52h1.252v8.543h-1.252V43.52z"/>
		<path fill="#FF5555" d="M89.752,49.992c0.659,0.562,1.442,0.844,2.352,0.852c1.076-0.016,1.621-0.411,1.639-1.188
			c0.008-0.637-0.354-1.021-1.079-1.149c-0.333-0.047-0.698-0.101-1.097-0.156c-0.713-0.121-1.254-0.395-1.625-0.814
			c-0.381-0.434-0.57-0.963-0.57-1.584c0-0.746,0.238-1.35,0.72-1.807c0.465-0.453,1.124-0.686,1.979-0.691
			c1.027,0.023,1.924,0.316,2.684,0.883l-0.698,1.062c-0.621-0.422-1.305-0.643-2.05-0.656c-0.387,0-0.709,0.1-0.966,0.299
			c-0.271,0.207-0.407,0.517-0.415,0.926c0,0.247,0.094,0.472,0.277,0.669c0.187,0.204,0.482,0.346,0.893,0.424
			c0.228,0.039,0.537,0.084,0.931,0.135c0.776,0.109,1.352,0.396,1.721,0.861c0.367,0.458,0.552,0.989,0.552,1.596
			c-0.041,1.636-1.011,2.463-2.903,2.486c-1.225,0-2.278-0.39-3.159-1.166L89.752,49.992z"/>
		<path fill="#FF5555" d="M101.227,39.385h1.859v10.869h5.983v1.809h-7.844L101.227,39.385L101.227,39.385z"/>
		<path fill="#FF5555" d="M110.712,45.725c0-1.477,0.042-2.463,0.126-2.963c0.09-0.5,0.229-0.902,0.413-1.212
			c0.298-0.583,0.773-1.104,1.431-1.559c0.646-0.463,1.451-0.699,2.416-0.711c0.979,0.012,1.791,0.25,2.441,0.713
			c0.645,0.459,1.11,0.98,1.396,1.564c0.207,0.309,0.353,0.711,0.431,1.209c0.071,0.498,0.108,1.482,0.108,2.957
			c0,1.447-0.037,2.428-0.108,2.938c-0.078,0.51-0.224,0.919-0.431,1.228c-0.287,0.586-0.752,1.102-1.396,1.547
			c-0.652,0.465-1.465,0.707-2.441,0.729c-0.965-0.022-1.771-0.268-2.416-0.729c-0.656-0.445-1.134-0.961-1.432-1.547
			c-0.09-0.191-0.17-0.373-0.243-0.549c-0.067-0.18-0.124-0.404-0.169-0.679C110.754,48.152,110.712,47.174,110.712,45.725z
			 M112.57,45.725c0,1.248,0.046,2.094,0.137,2.534c0.079,0.441,0.238,0.8,0.48,1.072c0.194,0.261,0.455,0.474,0.774,0.635
			c0.312,0.192,0.689,0.288,1.131,0.288c0.443,0,0.828-0.096,1.155-0.288c0.311-0.161,0.557-0.374,0.741-0.635
			c0.24-0.272,0.406-0.631,0.496-1.072c0.086-0.44,0.127-1.286,0.127-2.534s-0.041-2.101-0.127-2.554
			c-0.09-0.43-0.256-0.78-0.496-1.055c-0.186-0.262-0.434-0.479-0.741-0.654c-0.327-0.168-0.712-0.258-1.155-0.27
			c-0.438,0.012-0.815,0.102-1.131,0.27c-0.319,0.177-0.58,0.394-0.774,0.654c-0.242,0.273-0.401,0.624-0.48,1.055
			C112.615,43.625,112.57,44.477,112.57,45.725z"/>
		<path fill="#FF5555" d="M121.572,45.725c0-1.477,0.041-2.463,0.127-2.963c0.089-0.5,0.228-0.902,0.412-1.212
			c0.298-0.583,0.772-1.104,1.431-1.559c0.646-0.463,1.451-0.699,2.416-0.711c0.977,0.012,1.791,0.25,2.44,0.713
			c0.646,0.459,1.11,0.98,1.396,1.564c0.208,0.309,0.352,0.711,0.43,1.209c0.072,0.498,0.108,1.482,0.108,2.957
			c0,1.447-0.036,2.428-0.108,2.938c-0.078,0.51-0.222,0.919-0.43,1.228c-0.286,0.586-0.753,1.102-1.396,1.547
			c-0.65,0.465-1.465,0.707-2.44,0.729c-0.965-0.022-1.771-0.268-2.416-0.729c-0.656-0.445-1.133-0.961-1.433-1.547
			c-0.09-0.191-0.17-0.373-0.241-0.549c-0.068-0.18-0.125-0.404-0.169-0.679C121.613,48.152,121.572,47.174,121.572,45.725z
			 M123.432,45.725c0,1.248,0.045,2.094,0.135,2.534c0.078,0.441,0.238,0.8,0.48,1.072c0.196,0.261,0.455,0.474,0.774,0.635
			c0.314,0.192,0.691,0.288,1.132,0.288c0.442,0,0.829-0.096,1.155-0.288c0.31-0.161,0.558-0.374,0.742-0.635
			c0.24-0.272,0.406-0.631,0.496-1.072c0.086-0.44,0.127-1.286,0.127-2.534s-0.041-2.101-0.127-2.554
			c-0.09-0.43-0.256-0.78-0.496-1.055c-0.187-0.262-0.435-0.479-0.742-0.654c-0.326-0.168-0.713-0.258-1.155-0.27
			c-0.438,0.012-0.814,0.102-1.132,0.27c-0.319,0.177-0.578,0.394-0.774,0.654c-0.242,0.273-0.402,0.624-0.48,1.055
			C123.477,43.625,123.432,44.477,123.432,45.725z"/>
		<path fill="#FF5555" d="M133,48.991c0.979,0.831,2.141,1.252,3.49,1.264c1.596-0.021,2.403-0.611,2.428-1.767
			c0.012-0.945-0.521-1.514-1.603-1.705c-0.494-0.07-1.035-0.148-1.625-0.235c-1.058-0.18-1.858-0.583-2.408-1.21
			c-0.567-0.645-0.852-1.427-0.852-2.35c0-1.107,0.354-2.002,1.067-2.68c0.688-0.676,1.668-1.018,2.937-1.027
			c1.525,0.035,2.854,0.472,3.979,1.31l-1.036,1.579c-0.921-0.628-1.937-0.953-3.042-0.977c-0.573,0-1.051,0.146-1.434,0.441
			c-0.398,0.311-0.604,0.768-0.614,1.375c0,0.366,0.138,0.697,0.413,0.992c0.273,0.305,0.716,0.512,1.32,0.627
			c0.338,0.061,0.797,0.125,1.381,0.2c1.152,0.163,2.003,0.589,2.555,1.279c0.545,0.679,0.816,1.468,0.816,2.365
			c-0.062,2.426-1.498,3.654-4.31,3.689c-1.817,0-3.38-0.577-4.688-1.729L133,48.991z"/>
		<path fill="#FF5555" d="M143.064,39.385h7.845v1.809h-5.984v3.627h5.109v1.703h-5.109v3.73h5.984v1.809h-7.845V39.385z"/>
		<path fill="#FF5555" d="M152.794,39.385H155l-0.674,9.547h-0.875L152.794,39.385z M153.027,50.255h1.759v1.809h-1.759V50.255z"/>
		<path fill="#FF5555" d="M157.385,39.385h2.207l-0.674,9.547h-0.877L157.385,39.385z M157.619,50.255h1.756v1.809h-1.756V50.255z"
			/>
		<path fill="#FF5555" d="M161.977,39.385h2.205l-0.674,9.547h-0.875L161.977,39.385z M162.21,50.255h1.757v1.809h-1.757V50.255z"/>
	</g>
</g>
</svg>
